<?xml version="1.0" encoding="UTF-8"?>
<svg width="15px" height="15px" viewBox="0 0 15 15" version="1.1" xmlns="http://www.w3.org/2000/svg" xmlns:xlink="http://www.w3.org/1999/xlink">
    <!-- Generator: Sketch 54 (76480) - https://sketchapp.com -->
    <title>Shape</title>
    <desc>Created with Sketch.</desc>
    <g id="Page-1" stroke="none" stroke-width="1" fill="none" fill-rule="evenodd">
        <g id="PRICE" transform="translate(-633.000000, -704.000000)" fill="#EC7D05" fill-rule="nonzero">
            <g id="business" transform="translate(555.000000, 461.000000)">
                <g id="Group-10" transform="translate(16.000000, 237.000000)">
                    <g id="f3c9e3ef9c" transform="translate(62.000000, 6.000000)">
                        <path d="M11.2541806,6.59919732 L11.2541806,2.63076923 L8.63852843,0.016187291 L0.016187291,0.016187291 L0.016187291,15.0005351 L11.2541806,15.0005351 L11.2541806,14.9732441 C13.3609365,14.7388629 14.9994649,12.9547826 15,10.7864883 C14.9994649,8.61658863 13.3609365,6.83250836 11.2541806,6.59919732 Z M8.57003344,1.32133779 L9.94849498,2.69926421 L8.57003344,2.69926421 L8.57003344,1.32133779 Z M1.08053512,13.921204 L1.08053512,1.08695652 L7.5083612,1.08695652 L7.5083612,3.76200669 L10.1941137,3.76200669 L10.1941137,6.59919732 C9.45565217,6.68160535 8.87558528,6.95397993 8.32227425,7.36655518 C8.12695652,7.36655518 1.88909699,7.36655518 1.88909699,7.36655518 L1.88909699,8.44535117 L7.28200669,8.44535117 C7.11505017,8.69525084 6.97645485,8.96494983 6.86622074,9.24856187 C6.65538462,9.26086957 1.88909699,9.24802676 1.88909699,9.24802676 L1.88909699,10.3182609 L6.59919732,10.3182609 C6.58207358,10.4723746 6.57190635,10.6280936 6.57190635,10.7870234 C6.57190635,12.0402676 7.11986622,13.1645485 7.9883612,13.9356522 C7.55063545,13.9490301 1.08053512,13.921204 1.08053512,13.921204 Z M10.7859532,14.0084281 C9.00615385,14.0046823 7.56615385,12.5646823 7.56187291,10.7864883 C7.56615385,9.00668896 9.00615385,7.56615385 10.7859532,7.56294314 C12.5646823,7.56668896 14.0046823,9.00668896 14.0089632,10.7864883 C14.0052174,12.5646823 12.5652174,14.0052174 10.7859532,14.0084281 Z M9.3812709,5.51023411 L1.88909699,5.51023411 L1.88909699,6.57190635 L9.3812709,6.57190635 L9.3812709,5.51023411 Z M9.84682274,12.5106355 L9.04361204,12.5106355 L9.04361204,11.7063545 L9.84682274,12.5106355 Z M9.32227067,11.4377249 L11.8434251,8.91657054 L12.6467285,9.71987398 L10.1255741,12.2410284 L9.32227067,11.4377249 Z" id="Shape"></path>
                    </g>
                </g>
            </g>
        </g>
    </g>
</svg>